<svg width="39" height="38" viewBox="0 0 39 38" fill="none" xmlns="http://www.w3.org/2000/svg">
<path d="M0 19.0095C0.00226883 28.3622 6.97764 36.3257 16.4516 37.7915V24.504H11.5046V19.0095H16.4574V14.8268C16.236 12.8449 16.9303 10.8696 18.3521 9.43676C19.7738 8.00389 21.7756 7.26193 23.8145 7.4121C25.278 7.43514 26.7378 7.56223 28.1824 7.79234V12.4674H25.7177C24.8691 12.3591 24.0161 12.6323 23.3987 13.2102C22.7814 13.788 22.4667 14.608 22.5432 15.439V19.0095H27.9464L27.0826 24.5059H22.5432V37.7915C32.789 36.2127 39.9738 27.0892 38.8924 17.0305C37.811 6.97172 28.842 -0.500863 18.4831 0.0262457C8.12412 0.553354 0.00164667 8.89563 0 19.0095Z" fill="#FF4D01"/>
</svg>
