<svg width="31" height="31" viewBox="0 0 31 31" fill="none" xmlns="http://www.w3.org/2000/svg">
<path d="M2.58331 10.4583C2.58331 8.57263 2.58331 7.62982 3.1691 7.04404C3.75489 6.45825 4.6977 6.45825 6.58331 6.45825H24.4166C26.3023 6.45825 27.2451 6.45825 27.8309 7.04404C28.4166 7.62982 28.4166 8.57263 28.4166 10.4583V11.9166C28.4166 12.388 28.4166 12.6237 28.2702 12.7701C28.1238 12.9166 27.8881 12.9166 27.4166 12.9166H3.58331C3.11191 12.9166 2.87621 12.9166 2.72976 12.7701C2.58331 12.6237 2.58331 12.388 2.58331 11.9166V10.4583Z" fill="#006F94"/>
<path fill-rule="evenodd" clip-rule="evenodd" d="M2.58331 24.4167C2.58331 26.3023 2.58331 27.2451 3.1691 27.8309C3.75489 28.4167 4.6977 28.4167 6.58331 28.4167H24.4166C26.3023 28.4167 27.2451 28.4167 27.8309 27.8309C28.4166 27.2451 28.4166 26.3023 28.4166 24.4167V16.5C28.4166 16.0286 28.4166 15.7929 28.2702 15.6464C28.1238 15.5 27.8881 15.5 27.4166 15.5H3.58331C3.11191 15.5 2.87621 15.5 2.72976 15.6464C2.58331 15.7929 2.58331 16.0286 2.58331 16.5V24.4167ZM9.04165 19.0833C9.04165 18.6119 9.04165 18.3762 9.18809 18.2298C9.33454 18.0833 9.57024 18.0833 10.0416 18.0833H13.2083C13.6797 18.0833 13.9154 18.0833 14.0619 18.2298C14.2083 18.3762 14.2083 18.6119 14.2083 19.0833V19.6667C14.2083 20.1381 14.2083 20.3738 14.0619 20.5202C13.9154 20.6667 13.6797 20.6667 13.2083 20.6667H10.0416C9.57024 20.6667 9.33454 20.6667 9.18809 20.5202C9.04165 20.3738 9.04165 20.1381 9.04165 19.6667V19.0833ZM9.18809 23.3964C9.04165 23.5429 9.04165 23.7786 9.04165 24.25V24.8333C9.04165 25.3047 9.04165 25.5404 9.18809 25.6869C9.33454 25.8333 9.57024 25.8333 10.0416 25.8333H13.2083C13.6797 25.8333 13.9154 25.8333 14.0619 25.6869C14.2083 25.5404 14.2083 25.3047 14.2083 24.8333V24.25C14.2083 23.7786 14.2083 23.5429 14.0619 23.3964C13.9154 23.25 13.6797 23.25 13.2083 23.25H10.0416C9.57024 23.25 9.33454 23.25 9.18809 23.3964ZM16.7916 19.0833C16.7916 18.6119 16.7916 18.3762 16.9381 18.2298C17.0845 18.0833 17.3202 18.0833 17.7916 18.0833H20.9583C21.4297 18.0833 21.6654 18.0833 21.8119 18.2298C21.9583 18.3762 21.9583 18.6119 21.9583 19.0833V19.6667C21.9583 20.1381 21.9583 20.3738 21.8119 20.5202C21.6654 20.6667 21.4297 20.6667 20.9583 20.6667H17.7916C17.3202 20.6667 17.0845 20.6667 16.9381 20.5202C16.7916 20.3738 16.7916 20.1381 16.7916 19.6667V19.0833ZM16.9381 23.3964C16.7916 23.5429 16.7916 23.7786 16.7916 24.25V24.8333C16.7916 25.3047 16.7916 25.5404 16.9381 25.6869C17.0845 25.8333 17.3202 25.8333 17.7916 25.8333H20.9583C21.4297 25.8333 21.6654 25.8333 21.8119 25.6869C21.9583 25.5404 21.9583 25.3047 21.9583 24.8333V24.25C21.9583 23.7786 21.9583 23.5429 21.8119 23.3964C21.6654 23.25 21.4297 23.25 20.9583 23.25H17.7916C17.3202 23.25 17.0845 23.25 16.9381 23.3964Z" fill="#006F94"/>
<path d="M9.04169 3.875L9.04169 7.75" stroke="#006F94" stroke-width="2" stroke-linecap="round"/>
<path d="M21.9583 3.875L21.9583 7.75" stroke="#006F94" stroke-width="2" stroke-linecap="round"/>
</svg>
