<svg width="227" height="236" viewBox="0 0 227 236" fill="none" xmlns="http://www.w3.org/2000/svg">
<path d="M30.1644 189.313L29.4486 196.29H11.5544V195.777L25.563 175.153H20.4504C19.8369 175.153 19.3256 175.153 18.9166 175.153C18.5076 175.153 18.0986 175.256 17.7918 175.256C17.0761 175.358 16.3603 175.974 15.44 177C14.622 178.026 13.9062 179.052 13.4972 180.181H12.3725L13.0882 173.819H29.7553V174.332L15.7468 194.957H21.0639C21.9842 194.957 22.9044 194.854 23.927 194.751C24.9495 194.649 25.563 194.443 25.8698 194.136C26.5855 193.52 27.199 192.699 27.8126 191.776C28.4261 190.852 28.8351 190.031 29.1418 189.313H30.1644Z" fill="#1A3260"/>
<path d="M39.3669 196.29H29.3461V195.162C29.6529 195.162 30.0619 195.059 30.5732 195.059C31.0844 195.059 31.4934 194.956 31.6979 194.854C32.0047 194.751 32.3115 194.546 32.4137 194.341C32.6182 194.136 32.6182 193.725 32.6182 193.315V177.103C32.6182 176.692 32.516 176.384 32.4137 176.179C32.3115 175.974 32.0047 175.769 31.5957 175.563C31.2889 175.461 30.8799 175.358 30.3687 175.256C29.8574 175.153 29.5507 175.05 29.2439 175.05V173.922H39.2646V175.05C38.9579 175.05 38.5488 175.05 38.1398 175.153C37.7308 175.256 37.3218 175.358 36.9128 175.461C36.5038 175.563 36.197 175.769 36.0948 176.077C35.9925 176.384 35.8903 176.692 35.8903 177V193.212C35.8903 193.52 35.9925 193.828 36.0948 194.136C36.197 194.443 36.5038 194.649 36.9128 194.751C37.1173 194.854 37.5263 194.957 38.0376 195.059C38.5488 195.162 38.9579 195.264 39.2646 195.264V196.29H39.3669Z" fill="#1A3260"/>
<path d="M62.7828 196.29H53.4779V195.162C53.6824 195.162 54.0914 195.059 54.6027 195.059C55.1139 195.059 55.4207 194.956 55.6252 194.854C55.9319 194.751 56.1364 194.546 56.3409 194.238C56.4432 193.93 56.5455 193.623 56.5455 193.212V185.209H46.0135V193.007C46.0135 193.417 46.1157 193.725 46.218 193.93C46.3202 194.136 46.627 194.443 46.9337 194.546C47.1382 194.649 47.445 194.751 47.854 194.854C48.263 194.956 48.672 194.957 48.9788 195.059V196.188H39.6738V195.059C39.8783 195.059 40.2873 194.957 40.7986 194.957C41.3099 194.957 41.6166 194.854 41.8211 194.751C42.1279 194.649 42.3324 194.443 42.5369 194.136C42.6391 193.828 42.7414 193.52 42.7414 193.11V177C42.7414 176.692 42.6391 176.384 42.5369 176.077C42.4346 175.769 42.1279 175.563 41.8211 175.461C41.5144 175.358 41.2076 175.153 40.7986 175.05C40.3896 174.948 40.0828 174.845 39.7761 174.845V173.717H49.081V174.845C48.7743 174.845 48.4675 174.948 47.9563 174.948C47.5473 175.05 47.2405 175.153 47.036 175.153C46.7292 175.256 46.4225 175.461 46.3202 175.769C46.218 176.077 46.1157 176.384 46.1157 176.692V183.67H56.6477V176.897C56.6477 176.59 56.5455 176.282 56.4432 175.974C56.3409 175.666 56.0342 175.461 55.7274 175.358C55.4207 175.256 55.1139 175.05 54.7049 174.948C54.2959 174.845 53.9891 174.743 53.6824 174.743V173.614H62.9873V174.743C62.6806 174.743 62.3738 174.845 61.8626 174.845C61.4536 174.948 61.1468 175.05 60.9423 175.05C60.6355 175.153 60.3288 175.358 60.2265 175.666C60.1243 175.974 60.022 176.282 60.022 176.59V192.699C60.022 193.11 60.1243 193.417 60.2265 193.623C60.3288 193.828 60.6355 194.136 60.9423 194.238C61.1468 194.341 61.4536 194.443 61.8626 194.546C62.2716 194.649 62.6806 194.649 62.9873 194.751V196.29H62.7828Z" fill="#1A3260"/>
<path d="M86.0963 175.05C85.7895 175.05 85.3805 175.153 84.767 175.256C84.1535 175.358 83.7445 175.563 83.3355 175.769C83.0287 175.974 82.722 176.487 82.6197 177.308C82.5174 178.026 82.4152 178.95 82.4152 180.078V189.826C82.4152 191.057 82.1084 192.186 81.5972 193.11C81.0859 194.033 80.3701 194.751 79.5521 195.367C78.7341 195.983 77.8138 196.393 76.8936 196.598C75.9733 196.803 75.053 197.009 74.235 197.009C72.9057 197.009 71.6787 196.803 70.6562 196.496C69.6337 196.188 68.7134 195.675 67.9976 195.059C67.2819 194.443 66.7706 193.725 66.3616 193.007C66.0548 192.186 65.8503 191.468 65.8503 190.544V177.308C65.8503 176.897 65.7481 176.59 65.6458 176.384C65.5436 176.179 65.2368 175.871 64.9301 175.666C64.6233 175.563 64.3165 175.358 63.9075 175.358C63.4985 175.256 63.1918 175.256 62.885 175.153V174.024H72.19V175.153C71.8832 175.153 71.5765 175.256 71.0652 175.256C70.6562 175.358 70.2472 175.461 70.0427 175.461C69.7359 175.563 69.4292 175.769 69.3269 176.077C69.2247 176.384 69.1224 176.692 69.1224 177V189.313C69.1224 189.929 69.2247 190.544 69.3269 191.16C69.4292 191.776 69.7359 192.391 70.1449 193.007C70.5539 193.623 71.0652 194.033 71.781 194.443C72.4967 194.854 73.417 194.957 74.644 194.957C75.7688 194.957 76.7913 194.751 77.5071 194.443C78.3251 194.033 78.9386 193.623 79.3476 193.007C79.7566 192.391 80.0634 191.878 80.2679 191.263C80.4724 190.647 80.5747 190.031 80.5747 189.416V180.283C80.5747 179.155 80.4724 178.129 80.3701 177.41C80.1656 176.692 79.9611 176.179 79.6544 175.974C79.2454 175.666 78.8364 175.461 78.1206 175.358C77.5071 175.256 76.9958 175.153 76.6891 175.153V174.024H85.7895V175.05H86.0963Z" fill="#1A3260"/>
<path d="M106.24 196.29H96.9352V195.162C97.7532 195.059 98.469 194.956 98.9802 194.854C99.4915 194.649 99.7983 194.546 99.7983 194.238C99.7983 194.136 99.7983 194.033 99.7983 193.93C99.7983 193.828 99.696 193.623 99.696 193.52L97.8555 188.492H89.982C89.6753 189.21 89.4708 189.826 89.2663 190.442C89.0618 190.955 88.9595 191.468 88.755 191.981C88.6528 192.391 88.5505 192.802 88.4483 193.11C88.346 193.417 88.346 193.623 88.346 193.828C88.346 194.238 88.6528 194.546 89.3685 194.854C89.982 195.059 90.8001 195.264 91.6181 195.264V196.393H83.2334V195.264C83.5402 195.264 83.8469 195.162 84.2559 195.059C84.6649 194.957 84.9717 194.854 85.2784 194.649C85.6875 194.341 85.9942 194.033 86.301 193.725C86.5055 193.417 86.71 193.007 87.0167 192.391C88.1415 189.621 89.3685 186.44 90.6978 182.951C92.0271 179.463 93.2541 176.282 94.2766 173.614H95.5037L102.968 192.904C103.173 193.315 103.275 193.623 103.479 193.93C103.684 194.136 103.991 194.443 104.297 194.649C104.502 194.751 104.809 194.957 105.218 195.059C105.627 195.162 105.933 195.264 106.24 195.264V196.29ZM97.242 187.158L93.8676 178.436L90.4933 187.158H97.242Z" fill="#1A3260"/>
<path d="M122.805 179.976H121.68C121.578 179.565 121.373 179.155 121.169 178.642C120.964 178.129 120.657 177.616 120.351 177.205C120.044 176.692 119.737 176.282 119.328 175.974C118.919 175.563 118.612 175.358 118.203 175.358C117.897 175.358 117.488 175.256 116.976 175.256C116.465 175.256 116.056 175.256 115.647 175.256H114.727V193.11C114.727 193.417 114.829 193.725 114.931 194.033C115.034 194.341 115.34 194.546 115.749 194.751C115.954 194.854 116.363 194.957 116.976 195.059C117.59 195.162 117.999 195.264 118.408 195.264V196.393H107.876V195.264C108.183 195.264 108.592 195.162 109.205 195.162C109.819 195.059 110.228 195.059 110.432 194.957C110.739 194.854 111.046 194.649 111.148 194.341C111.353 194.033 111.353 193.725 111.353 193.315V175.256H110.432C110.126 175.256 109.717 175.256 109.205 175.256C108.694 175.256 108.285 175.256 107.774 175.358C107.467 175.358 107.058 175.563 106.649 175.974C106.24 176.384 105.933 176.795 105.626 177.205C105.32 177.718 105.013 178.231 104.808 178.744C104.604 179.257 104.399 179.668 104.297 180.078H103.172V174.024H122.6V179.976H122.805Z" fill="#1A3260"/>
<path d="M142.949 196.29H133.644V195.162C134.462 195.059 135.177 194.956 135.689 194.854C136.2 194.649 136.507 194.546 136.507 194.238C136.507 194.136 136.507 194.033 136.507 193.93C136.507 193.828 136.405 193.623 136.405 193.52L134.564 188.492H126.691C126.384 189.21 126.179 189.826 125.975 190.442C125.77 190.955 125.668 191.468 125.464 191.981C125.361 192.391 125.259 192.802 125.157 193.11C125.055 193.417 125.055 193.623 125.055 193.828C125.055 194.238 125.361 194.546 126.077 194.854C126.691 195.059 127.509 195.264 128.327 195.264V196.393H119.942V195.264C120.249 195.264 120.555 195.162 120.964 195.059C121.373 194.957 121.68 194.854 121.987 194.649C122.396 194.341 122.703 194.033 123.009 193.725C123.214 193.417 123.418 193.007 123.725 192.391C124.85 189.621 126.077 186.44 127.406 182.951C128.736 179.463 129.963 176.282 130.985 173.614H132.212L139.677 192.904C139.881 193.315 139.983 193.623 140.188 193.93C140.392 194.136 140.699 194.443 141.006 194.649C141.21 194.751 141.517 194.957 141.926 195.059C142.335 195.162 142.642 195.264 142.949 195.264V196.29ZM133.95 187.158L130.576 178.436L127.202 187.158H133.95Z" fill="#1A3260"/>
<path d="M164.217 175.05C163.91 175.05 163.501 175.153 162.888 175.256C162.274 175.461 161.865 175.563 161.559 175.769C161.149 176.077 160.945 176.487 160.843 177.308C160.74 178.026 160.638 178.95 160.638 180.181V196.598H159.309L145.812 178.334V189.929C145.812 191.263 145.914 192.186 146.016 192.904C146.221 193.623 146.425 194.136 146.732 194.341C146.936 194.546 147.448 194.751 148.266 194.957C148.981 195.162 149.493 195.264 149.799 195.264V196.393H140.699V195.264C141.006 195.264 141.415 195.162 142.131 194.957C142.846 194.751 143.255 194.649 143.358 194.443C143.767 194.136 143.971 193.725 144.073 193.11C144.176 192.494 144.278 191.468 144.278 190.031V179.052C144.278 178.539 144.176 178.129 144.073 177.616C143.869 177.103 143.664 176.795 143.358 176.487C142.949 176.179 142.437 175.871 141.824 175.563C141.21 175.358 140.699 175.153 140.29 175.153V174.024H146.63L159.207 191.057V180.386C159.207 179.052 159.104 178.129 159.002 177.41C158.798 176.692 158.593 176.282 158.286 175.974C157.98 175.769 157.468 175.563 156.855 175.358C156.139 175.153 155.73 175.05 155.321 175.05V173.922H164.422V175.05H164.217Z" fill="#1A3260"/>
<path d="M182.316 189.723L181.907 196.29H163.399V195.162C163.706 195.162 164.115 195.059 164.626 195.059C165.137 194.957 165.444 194.956 165.648 194.854C165.955 194.649 166.262 194.443 166.364 194.238C166.466 194.033 166.569 193.623 166.569 193.315V177.205C166.569 176.897 166.466 176.59 166.364 176.282C166.262 175.974 166.057 175.769 165.648 175.666C165.342 175.563 165.035 175.358 164.524 175.256C164.012 175.153 163.706 175.05 163.399 175.05V173.922H180.68V179.36H179.453C179.248 178.539 178.839 177.718 178.123 176.795C177.407 175.871 176.794 175.358 176.18 175.358C175.874 175.358 175.465 175.256 175.056 175.256C174.647 175.256 174.135 175.256 173.522 175.256H170.045V184.183H172.602C173.42 184.183 174.033 184.08 174.34 183.977C174.749 183.875 175.056 183.567 175.362 183.259C175.567 182.951 175.771 182.541 175.976 182.028C176.18 181.515 176.283 181.002 176.283 180.591H177.51V189.313H176.283C176.283 188.8 176.078 188.287 175.976 187.671C175.771 187.158 175.567 186.748 175.362 186.44C175.056 186.03 174.647 185.722 174.238 185.619C173.829 185.516 173.317 185.414 172.602 185.414H170.045V192.083C170.045 192.802 170.045 193.315 170.148 193.623C170.25 194.033 170.454 194.341 170.659 194.546C170.966 194.751 171.272 194.854 171.784 194.957C172.295 195.059 172.908 195.059 173.829 195.059C174.135 195.059 174.647 195.059 175.158 195.059C175.669 195.059 176.18 195.059 176.589 194.957C176.998 194.957 177.407 194.854 177.816 194.751C178.225 194.649 178.532 194.443 178.737 194.341C179.248 193.828 179.759 193.11 180.271 192.083C180.782 191.057 181.089 190.339 181.293 189.826H182.316V189.723Z" fill="#1A3260"/>
<path d="M196.426 175.05C196.12 175.05 195.813 175.05 195.302 175.153C194.893 175.256 194.484 175.358 194.177 175.461C193.87 175.563 193.563 175.769 193.461 176.077C193.359 176.384 193.257 176.692 193.257 177V190.236C193.257 190.955 193.154 191.673 192.848 192.494C192.541 193.315 192.132 193.93 191.621 194.546C191.007 195.264 190.291 195.777 189.371 196.188C188.553 196.598 187.531 196.803 186.406 196.803C184.667 196.803 183.338 196.29 182.213 195.367C181.191 194.443 180.577 193.11 180.577 191.468C180.577 190.75 180.782 190.134 181.089 189.518C181.498 189.005 182.009 188.697 182.725 188.697C183.338 188.697 183.849 188.903 184.258 189.21C184.667 189.518 184.872 190.031 184.872 190.647C184.872 190.955 184.77 191.365 184.667 191.673C184.565 191.981 184.361 192.289 184.258 192.597C184.054 192.802 183.952 193.11 183.747 193.417C183.543 193.725 183.44 194.033 183.338 194.341C183.543 194.649 183.952 194.957 184.361 195.264C184.872 195.572 185.486 195.675 186.201 195.675C186.917 195.675 187.633 195.47 188.042 195.162C188.553 194.854 188.86 194.341 189.167 193.725C189.371 193.212 189.576 192.494 189.678 191.673C189.78 190.852 189.78 190.031 189.78 189.005V177.205C189.78 176.795 189.678 176.487 189.576 176.282C189.473 176.077 189.167 175.769 188.86 175.666C188.553 175.461 188.144 175.358 187.633 175.256C187.122 175.153 186.713 175.153 186.406 175.05V173.922H196.222V175.05H196.426Z" fill="#1A3260"/>
<path d="M214.423 176.59C215.445 177.616 216.161 178.847 216.775 180.283C217.286 181.72 217.593 183.362 217.593 185.106C217.593 186.85 217.286 188.492 216.775 189.929C216.161 191.365 215.445 192.597 214.423 193.623C213.4 194.649 212.276 195.367 211.049 195.983C209.719 196.496 208.39 196.803 206.958 196.803C205.425 196.803 203.993 196.496 202.664 195.88C201.335 195.264 200.21 194.443 199.289 193.417C198.369 192.391 197.653 191.16 197.04 189.723C196.529 188.287 196.222 186.748 196.222 185.003C196.222 183.157 196.529 181.515 197.04 180.181C197.653 178.744 198.369 177.513 199.392 176.487C200.414 175.461 201.539 174.64 202.868 174.127C204.198 173.614 205.527 173.306 206.958 173.306C208.39 173.306 209.821 173.614 211.151 174.127C212.378 174.743 213.503 175.563 214.423 176.59ZM212.071 192.494C212.685 191.57 213.094 190.442 213.4 189.21C213.707 187.979 213.809 186.645 213.809 185.209C213.809 183.67 213.707 182.233 213.4 181.002C213.094 179.668 212.685 178.642 212.071 177.718C211.458 176.795 210.742 176.179 209.924 175.666C209.003 175.153 208.083 174.948 206.958 174.948C205.731 174.948 204.607 175.256 203.789 175.769C202.868 176.384 202.153 177.103 201.641 178.129C201.13 179.052 200.721 180.181 200.517 181.412C200.21 182.643 200.108 183.977 200.108 185.311C200.108 186.85 200.21 188.184 200.517 189.416C200.823 190.647 201.232 191.673 201.846 192.699C202.459 193.623 203.175 194.341 203.993 194.854C204.811 195.367 205.834 195.675 207.061 195.675C208.185 195.675 209.208 195.367 210.128 194.854C210.844 194.136 211.56 193.417 212.071 192.494Z" fill="#1A3260"/>
<path d="M101.23 165.508H96.7306V164.995C96.8328 164.995 97.0373 164.995 97.2418 164.995C97.4463 164.995 97.6509 164.995 97.7531 164.892C97.9576 164.79 98.0599 164.687 98.0599 164.584C98.1621 164.482 98.1621 164.277 98.1621 164.071V160.172H93.0495V163.969C93.0495 164.174 93.0495 164.277 93.1518 164.379C93.254 164.482 93.3563 164.584 93.4585 164.687C93.5608 164.687 93.663 164.79 93.9698 164.79C94.1743 164.79 94.3788 164.892 94.481 164.892V165.405H89.9819V164.892C90.0842 164.892 90.2887 164.892 90.4932 164.892C90.6977 164.892 90.9022 164.892 91.0045 164.79C91.209 164.687 91.3112 164.584 91.3112 164.482C91.4135 164.379 91.4135 164.174 91.4135 163.969V156.068C91.4135 155.863 91.4135 155.76 91.3112 155.657C91.209 155.555 91.1067 155.452 91.0045 155.35C90.9022 155.247 90.6977 155.247 90.4932 155.144C90.2887 155.042 90.0842 155.042 89.9819 155.042V154.529H94.481V155.042C94.3788 155.042 94.1743 155.042 93.9698 155.144C93.7653 155.144 93.5608 155.247 93.4585 155.247C93.254 155.35 93.1518 155.452 93.1518 155.555C93.0495 155.657 93.0495 155.863 93.0495 156.068V159.454H98.1621V156.17C98.1621 155.965 98.1621 155.863 98.0599 155.76C97.9576 155.657 97.8554 155.555 97.7531 155.452C97.6509 155.35 97.4463 155.35 97.2418 155.247C97.0373 155.144 96.8328 155.144 96.7306 155.144V154.631H101.23V155.144C101.127 155.144 100.923 155.144 100.718 155.247C100.514 155.247 100.309 155.35 100.207 155.35C100.003 155.452 99.9004 155.555 99.9004 155.657C99.7981 155.76 99.7982 155.965 99.7982 156.17V164.071C99.7982 164.277 99.7981 164.379 99.9004 164.482C100.003 164.584 100.105 164.687 100.207 164.79C100.309 164.79 100.412 164.892 100.718 164.892C100.923 164.892 101.127 164.995 101.23 164.995V165.508Z" fill="#1A3260"/>
<path d="M110.432 155.863C110.944 156.376 111.25 156.991 111.557 157.71C111.864 158.428 111.966 159.249 111.966 160.07C111.966 160.89 111.864 161.711 111.557 162.43C111.25 163.148 110.944 163.763 110.432 164.277C109.921 164.79 109.41 165.2 108.796 165.405C108.183 165.713 107.467 165.816 106.751 165.816C106.035 165.816 105.32 165.713 104.604 165.405C103.99 165.097 103.377 164.687 102.968 164.174C102.457 163.661 102.15 163.045 101.843 162.327C101.536 161.609 101.434 160.89 101.434 160.07C101.434 159.146 101.536 158.428 101.843 157.71C102.15 156.991 102.457 156.376 102.968 155.863C103.479 155.35 103.99 154.939 104.604 154.734C105.217 154.426 105.933 154.323 106.649 154.323C107.365 154.323 108.08 154.426 108.694 154.734C109.41 155.042 109.921 155.452 110.432 155.863ZM109.205 163.661C109.512 163.148 109.717 162.635 109.819 162.122C109.921 161.506 110.023 160.89 110.023 160.172C110.023 159.454 109.921 158.736 109.819 158.12C109.717 157.504 109.41 156.991 109.205 156.478C108.899 156.068 108.592 155.657 108.183 155.452C107.774 155.247 107.262 155.042 106.751 155.042C106.138 155.042 105.626 155.144 105.217 155.452C104.808 155.76 104.399 156.068 104.195 156.581C103.888 156.991 103.786 157.607 103.581 158.12C103.479 158.736 103.377 159.351 103.377 160.07C103.377 160.788 103.479 161.506 103.581 162.122C103.684 162.737 103.888 163.25 104.195 163.661C104.502 164.071 104.808 164.482 105.217 164.687C105.626 164.892 106.138 165.097 106.751 165.097C107.262 165.097 107.774 164.995 108.285 164.687C108.592 164.482 109.001 164.174 109.205 163.661Z" fill="#1A3260"/>
<path d="M120.964 157.607H120.453C120.453 157.402 120.351 157.197 120.249 156.991C120.146 156.786 120.044 156.478 119.84 156.273C119.635 156.068 119.533 155.863 119.328 155.657C119.124 155.452 118.919 155.35 118.817 155.35C118.612 155.35 118.408 155.35 118.203 155.35C117.999 155.35 117.692 155.35 117.488 155.35H117.079V164.071C117.079 164.277 117.079 164.379 117.181 164.584C117.283 164.687 117.385 164.79 117.59 164.892C117.692 164.892 117.897 164.995 118.203 164.995C118.51 165.097 118.715 165.097 118.919 165.097V165.61H113.807V165.097C113.909 165.097 114.216 165.097 114.42 164.995C114.727 164.995 114.931 164.892 115.034 164.892C115.238 164.79 115.34 164.687 115.443 164.584C115.545 164.482 115.545 164.277 115.545 164.071V155.247H115.136C114.931 155.247 114.829 155.247 114.522 155.247C114.318 155.247 114.011 155.247 113.807 155.247C113.602 155.247 113.5 155.35 113.295 155.555C113.091 155.76 112.989 155.965 112.784 156.17C112.58 156.376 112.477 156.683 112.375 156.889C112.273 157.197 112.171 157.402 112.171 157.504H111.455V154.529H120.964V157.607Z" fill="#1A3260"/>
<path d="M129.86 162.327L129.656 165.508H120.555V164.995C120.76 164.995 120.964 164.995 121.169 164.892C121.476 164.892 121.578 164.79 121.68 164.79C121.885 164.687 121.987 164.584 121.987 164.482C122.089 164.379 122.089 164.174 122.089 163.969V156.068C122.089 155.863 122.089 155.76 121.987 155.657C121.885 155.555 121.782 155.452 121.68 155.35C121.578 155.247 121.373 155.247 121.169 155.144C120.964 155.042 120.76 155.042 120.658 155.042V154.529H129.145V157.197H128.531C128.429 156.786 128.224 156.376 127.815 155.965C127.509 155.555 127.1 155.247 126.793 155.247C126.588 155.247 126.486 155.247 126.179 155.247C125.975 155.247 125.668 155.247 125.464 155.247H123.725V159.557H124.952C125.361 159.557 125.668 159.557 125.77 159.454C125.975 159.351 126.077 159.249 126.282 159.043C126.384 158.941 126.486 158.736 126.588 158.428C126.691 158.223 126.691 157.915 126.793 157.71H127.406V162.019H126.793C126.793 161.814 126.691 161.506 126.588 161.198C126.486 160.89 126.384 160.685 126.282 160.583C126.077 160.377 125.975 160.275 125.77 160.172C125.566 160.07 125.259 160.07 124.952 160.07H123.725V163.353C123.725 163.661 123.725 163.969 123.827 164.174C123.827 164.379 123.93 164.482 124.134 164.584C124.237 164.687 124.441 164.79 124.646 164.79C124.85 164.79 125.157 164.79 125.668 164.79C125.873 164.79 126.077 164.79 126.384 164.79C126.691 164.79 126.895 164.79 127.1 164.79C127.304 164.79 127.509 164.687 127.713 164.687C127.918 164.584 128.02 164.584 128.122 164.482C128.327 164.277 128.633 163.866 128.838 163.353C129.145 162.84 129.247 162.532 129.349 162.224H129.86V162.327Z" fill="#1A3260"/>
<path d="M138.552 162.327L138.347 165.61H129.86V165.097C129.963 165.097 130.167 165.097 130.372 164.995C130.576 164.995 130.781 164.892 130.883 164.892C131.087 164.79 131.19 164.687 131.19 164.584C131.292 164.482 131.292 164.277 131.292 164.071V156.273C131.292 156.068 131.292 155.965 131.19 155.76C131.087 155.657 130.985 155.555 130.883 155.452C130.781 155.35 130.576 155.35 130.372 155.247C130.167 155.144 129.963 155.144 129.86 155.144V154.631H134.462V155.144C134.359 155.144 134.155 155.144 133.95 155.247C133.746 155.247 133.541 155.35 133.439 155.35C133.235 155.452 133.132 155.555 133.132 155.657C133.03 155.76 133.03 155.965 133.03 156.17V163.558C133.03 163.866 133.03 164.174 133.03 164.379C133.03 164.584 133.132 164.687 133.235 164.79C133.337 164.892 133.541 164.892 133.746 164.995C133.95 164.995 134.257 164.995 134.768 164.995C134.973 164.995 135.177 164.995 135.382 164.995C135.586 164.995 135.791 164.995 135.995 164.892C136.2 164.892 136.302 164.79 136.507 164.79C136.609 164.687 136.814 164.687 136.814 164.584C137.018 164.379 137.223 163.969 137.529 163.558C137.836 163.045 138.041 162.737 138.143 162.43H138.552V162.327Z" fill="#1A3260"/>
<path d="M79.0409 158.838H15.6445V161.404H79.0409V158.838Z" fill="#006F94"/>
<path d="M212.991 158.838H147.652V161.404H212.991V158.838Z" fill="#006F94"/>
<path d="M82.4154 56.0243C94.9924 56.0243 110.739 61.4626 124.237 61.4626C137.734 61.4626 153.072 56.0243 153.072 56.0243C152.56 33.2452 133.951 14.9809 111.148 14.9809C88.346 14.9809 69.8384 33.2452 69.2249 56.0243V64.0278C69.6339 62.1809 71.7812 56.0243 82.4154 56.0243Z" fill="#1A3260"/>
<path d="M117.897 110.715C133.541 110.715 143.46 108.868 149.697 106.61C151.947 101.48 153.174 95.8365 153.174 89.8852V73.7757C145.812 76.4435 138.45 79.727 130.985 83.7287C114.42 92.6557 100.514 103.635 90.1865 115.23C97.2419 112.767 106.649 110.715 117.897 110.715Z" fill="#1A3260"/>
<path d="M123.418 120.565C101.945 114.614 83.9491 123.13 83.3356 123.438C81.2905 126.311 79.45 129.082 77.814 131.955H111.353C121.373 131.955 130.474 128.363 137.632 122.515C133.644 122.617 128.94 122.104 123.418 120.565Z" fill="#006F94"/>
<path d="M90.8 61.2574C90.8 61.2574 92.5383 65.6696 91.7203 71.5182C91.7203 71.5182 93.7654 71.5182 95.8104 71.5182C97.7532 71.6209 101.434 71.9287 101.434 71.9287C101.434 71.9287 94.2766 69.8765 90.8 61.2574Z" fill="#006F94"/>
<path d="M133.644 122.515C133.644 122.515 145.301 123.541 154.503 119.026C154.503 119.026 146.732 124.567 136.711 124.567C126.486 124.464 133.644 122.515 133.644 122.515Z" fill="#006F94"/>
<path d="M111.455 72.7496C105.115 72.7496 98.6735 71.313 91.7203 71.5182C91.9248 72.2365 92.4361 73.7756 92.6406 74.2887C92.9474 74.9043 92.8451 75.1095 92.8451 75.6226C92.7429 75.9304 91.4136 76.2382 90.8001 76.2382C90.6978 76.3409 90.3911 76.7513 90.3911 77.5722C90.3911 77.5722 90.2888 78.5982 89.8798 78.7009C89.4708 78.8035 88.5505 78.8035 88.5505 78.8035C88.5505 78.8035 89.982 79.2139 89.8798 79.6243C89.7775 80.0348 88.8573 81.1635 88.8573 81.1635C88.8573 81.1635 89.2663 81.6765 88.9595 82.4974C88.4483 83.6261 88.0393 83.7287 88.0393 83.7287C88.0393 83.7287 87.4257 84.4469 84.8694 84.3443C82.6199 84.2417 81.8019 84.1391 79.0411 83.3182L76.7915 88.5513C76.7915 88.5513 80.5748 90.7061 80.5748 91.9374C80.5748 93.1687 85.1762 99.9409 85.1762 99.9409C85.1762 99.9409 87.8347 106.405 80.9838 107.944C80.9838 107.944 81.6996 109.483 78.7343 116.461C78.632 116.769 78.4275 117.077 78.3253 117.487C87.3235 105.379 99.0825 93.1687 112.989 81.9843C112.989 81.9843 125.361 72.4417 137.12 64.8487C135.996 65.3617 121.885 72.7496 111.455 72.7496Z" fill="#1A3260"/>
<path d="M131.087 54.7931C128.02 42.1722 116.568 32.7322 102.968 32.7322C88.5505 32.7322 76.587 43.3009 74.4397 57.2557C77.405 55.5113 81.6996 55.6139 84.2559 55.8191C84.5627 55.3061 84.9717 54.7931 85.3807 54.3826C85.2784 54.1774 84.9717 53.767 84.2559 53.5617C83.4379 53.2539 85.0739 52.8435 86.71 52.8435C87.3235 52.1252 88.0392 51.5096 88.755 50.7913C88.4483 50.5861 87.937 50.2783 87.528 50.2783C87.119 50.2783 88.5505 50.2783 89.164 50.3809C89.7775 49.8678 90.391 49.3548 91.0046 48.9444L85.4829 45.6609C85.4829 45.6609 90.0843 47.3026 91.9248 48.3287C93.2541 47.5078 94.5834 46.687 96.0149 46.0713C95.9127 45.0452 95.6059 42.993 93.7654 41.3513C93.7654 41.3513 95.7082 41.5565 97.3442 45.5583C99.0825 44.84 100.923 44.327 102.764 43.9165V38.5809C102.764 38.5809 104.195 41.3513 103.991 43.7113C105.32 43.5061 106.547 43.4035 107.876 43.4035L110.535 38.9913C110.535 38.9913 110.228 41.8644 109.103 43.5061C110.841 43.6087 112.58 43.8139 114.216 44.1217L116.874 41.4539C116.874 41.4539 116.159 43.3009 115.238 44.4296C116.363 44.7374 117.488 45.0452 118.613 45.5583L119.635 44.1217C119.635 44.1217 119.431 44.84 119.022 45.4557C119.124 45.4557 119.226 45.5583 119.431 45.5583L121.271 43.5061C121.271 43.5061 120.76 44.9426 120.146 45.8661C121.067 46.2765 121.885 46.687 122.703 47.2L123.828 46.1739C123.828 46.1739 123.623 47.0974 123.419 47.6104C124.441 48.2261 125.361 48.9444 126.282 49.6626L126.997 48.3287L126.895 49.4574L127.406 48.5339C127.406 48.5339 127.406 49.6626 126.997 50.2783C127.509 50.6887 128.02 51.2017 128.429 51.7148V49.9704C128.429 49.9704 128.94 51.407 129.145 52.4331C129.963 53.3565 130.576 54.0748 131.087 54.7931ZM87.7325 41.3513C90.391 41.8644 90.8001 43.5061 90.8001 43.5061L87.7325 41.3513ZM99.287 40.4278L97.4465 37.247C97.5487 37.247 99.696 38.8887 99.287 40.4278Z" fill="#33A357"/>
<path d="M144.789 39.1965C144.789 39.1965 100.003 17.6487 80.8815 56.2296L76.6892 46.7896L93.9698 22.6765L120.351 20.1113L140.188 28.7304L144.789 39.1965Z" fill="#1A3260"/>
<path d="M151.845 46.9948C147.346 28.6278 130.883 15.0835 111.148 15.0835C88.346 15.0835 69.8384 33.3478 69.2249 56.1269V64.6435C69.2249 64.6435 70.0429 57.5635 79.6546 56.3322C81.0861 52.7409 83.1312 49.4574 85.483 46.4817C85.2785 46.1739 84.8695 45.6609 83.8469 45.353C82.6199 44.9426 84.9717 44.2243 87.4258 44.2243C88.346 43.1982 89.3686 42.2748 90.3911 41.3513C89.9821 41.0435 89.164 40.633 88.6528 40.5304C88.0393 40.4278 90.1866 40.5304 91.1068 40.7356C91.9249 40.0174 92.8451 39.2991 93.7654 38.5809L85.6875 33.8609C85.6875 33.8609 92.3339 36.2209 94.9924 37.6574C96.833 36.4261 98.7758 35.2974 100.821 34.3739C100.719 32.8348 100.207 29.8591 97.651 27.4991C97.651 27.4991 100.412 27.7043 102.764 33.553C105.218 32.5269 107.876 31.8087 110.637 31.193V23.4974C110.637 23.4974 112.682 27.6017 112.478 30.8852C114.318 30.5774 116.261 30.4748 118.204 30.4748L122.089 24.0104C122.089 24.0104 121.68 28.1148 120.044 30.4748C122.601 30.5774 125.055 30.8852 127.406 31.3983L131.19 27.4991C131.19 27.4991 130.167 30.1669 128.838 31.8087C130.474 32.2191 132.11 32.7322 133.746 33.3478L135.382 31.7061C135.382 31.7061 135.178 32.7322 134.462 33.6556C134.666 33.7582 134.769 33.7582 134.973 33.8609L137.529 30.8852C137.529 30.8852 136.711 33.04 135.996 34.2713C137.223 34.8869 138.45 35.5026 139.677 36.2209L141.313 34.6817C141.313 34.6817 141.006 36.0156 140.699 36.8365C142.131 37.76 143.562 38.7861 144.892 39.8122L146.016 37.9652L145.914 39.7096L146.63 38.4782C146.63 38.4782 146.528 40.12 146.119 40.9409C146.834 41.5565 147.55 42.2748 148.266 42.993L148.164 40.4278C148.164 40.4278 148.879 42.48 149.186 44.0191C150.106 44.84 151.027 45.8661 151.845 46.9948ZM88.9595 27.4991C92.8451 28.2174 93.4586 30.5774 93.4586 30.5774L88.9595 27.4991ZM105.831 26.1652L103.173 21.5478C103.173 21.5478 106.342 23.9078 105.831 26.1652ZM124.441 28.833L128.327 22.9843C128.327 25.4469 124.441 28.833 124.441 28.833Z" fill="#33A357"/>
<path d="M125.463 15.9043C134.462 17.1357 142.642 21.24 148.879 27.2939C141.21 17.2383 129.145 10.7739 115.545 10.7739C100.207 10.7739 86.7099 19.0852 79.45 31.5009C81.2905 32.1165 82.9265 33.4504 84.2558 35.2974C91.4135 23.9078 103.888 16.1096 118.204 15.5965C115.852 15.1861 113.398 14.9809 110.944 14.9809C104.706 14.9809 98.8779 16.3148 93.5608 18.7774C99.3891 15.8017 105.933 14.0574 112.886 14.0574C117.283 13.9548 121.476 14.673 125.463 15.9043Z" fill="#33A357"/>
<path d="M86.3011 119.231C95.2993 109.176 107.058 100.351 118.408 93.1687C131.292 85.0626 145.301 78.7009 159.923 74.4939C160.229 74.3913 160.536 73.8783 160.741 73.673C161.252 72.9548 161.763 72.1339 162.172 71.4156C162.581 70.5948 163.093 69.8765 163.399 69.0556C163.399 69.1583 163.911 67.9269 163.706 67.9269C149.084 72.1339 135.178 78.4956 122.294 86.4991C110.433 93.7843 99.5939 102.609 90.2889 112.972C89.1641 114.203 87.2213 116.358 86.5056 117.795C86.4033 118 85.2786 120.36 86.3011 119.231Z" fill="#1A3260"/>
<path d="M65.0325 138.419C66.1572 137.496 66.9753 135.751 67.5888 134.52C68.9181 132.057 69.8383 130.416 71.2699 128.158C73.0081 125.49 74.7464 122.925 76.6892 120.36C80.8816 114.717 85.4829 109.381 90.2888 104.25C100.821 93.1687 112.682 83.0104 125.464 74.5965C129.349 72.0313 133.337 69.6713 137.427 67.4139C137.836 67.2087 133.132 67.5165 133.337 67.1061C133.848 66.2852 139.472 64.3357 139.983 63.5148C140.392 62.7965 137.018 64.4383 137.325 63.72C137.325 63.6174 141.313 60.7444 140.904 60.9496L135.689 62.7965C110.126 77.367 92.3338 95.7339 75.5645 120.052C71.9856 125.183 68.7136 129.697 65.8505 135.136L65.0325 138.419Z" fill="#1A3260"/>
<path d="M152.049 99.12C152.049 99.12 149.084 111.946 142.949 117.077C142.949 117.077 147.55 108.663 146.119 106.508C144.687 104.353 152.049 99.12 152.049 99.12Z" fill="#1A3260"/>
<path d="M89.1638 60.6417C88.8571 63.72 85.6873 65.2591 83.4377 66.6956C80.5747 68.44 77.9161 70.3896 75.7688 72.8522C72.2922 76.7513 70.2472 81.3687 69.3269 86.3965C70.0427 84.6522 70.7584 83.2156 71.3719 82.0869C72.8035 78.9061 74.8485 76.033 77.5071 73.4678C79.5521 71.6209 81.8017 70.0817 84.1535 68.6452C86.3008 67.4139 88.9593 65.7722 89.2661 63.0017C89.1638 62.1809 89.0616 61.36 89.1638 60.6417Z" fill="#006F94"/>
<path d="M66.2593 225.431C65.0323 225.431 63.9075 225.226 62.7828 224.713C61.658 224.2 60.7377 223.584 59.8175 222.661C58.9994 221.737 58.2837 220.711 57.7724 219.377C57.2611 218.043 57.0566 216.607 57.0566 214.965C57.0566 213.323 57.2611 211.887 57.7724 210.553C58.2837 209.219 58.8972 208.09 59.8175 207.167C60.6355 206.243 61.658 205.525 62.885 205.012C64.0098 204.499 65.3391 204.191 66.6684 204.191C67.6909 204.191 68.6112 204.294 69.3269 204.602C70.1449 204.807 70.8607 205.217 71.6787 205.628L72.2922 204.704H73.417L73.5193 211.887H72.3945C72.2922 211.169 71.9855 210.45 71.6787 209.63C71.372 208.809 71.0652 208.09 70.6562 207.577C70.2472 206.962 69.6337 206.449 69.0202 206.038C68.4066 205.628 67.6909 205.525 66.8729 205.525C65.9526 205.525 65.1346 205.73 64.3166 206.141C63.4985 206.551 62.885 207.167 62.2715 207.988C61.7602 208.809 61.249 209.732 60.9422 210.963C60.6355 212.195 60.431 213.529 60.431 214.965C60.431 216.299 60.6355 217.428 60.9422 218.557C61.249 219.685 61.7602 220.609 62.3738 221.43C62.9873 222.25 63.703 222.866 64.5211 223.379C65.3391 223.79 66.2593 224.097 67.2819 224.097C68.0999 224.097 68.7134 223.995 69.4292 223.687C70.0427 223.482 70.6562 223.174 71.0652 222.763C71.5765 222.353 71.9855 221.84 72.2922 221.327C72.7012 220.814 72.9057 220.198 73.2125 219.583L74.235 220.096C73.417 222.148 72.2922 223.584 70.963 224.405C69.7359 225.021 68.2021 225.431 66.2593 225.431Z" fill="#1A3260"/>
<path d="M92.436 218.967L92.0269 224.918H75.2576V223.892C75.5643 223.892 75.8711 223.79 76.3823 223.79C76.8936 223.687 77.2004 223.687 77.3026 223.584C77.6094 223.482 77.8139 223.276 77.9161 223.071C78.0184 222.866 78.1206 222.558 78.1206 222.25V207.68C78.1206 207.372 78.0184 207.064 77.9161 206.859C77.8139 206.654 77.6094 206.449 77.3026 206.243C76.9959 206.141 76.6891 206.038 76.2801 205.936C75.8711 205.833 75.4621 205.833 75.2576 205.73V204.704H90.9022V209.63H89.8797C89.6751 208.911 89.2661 208.09 88.6526 207.372C88.0391 206.551 87.4256 206.141 86.8121 206.038C86.5053 206.038 86.1986 205.936 85.7896 205.936C85.3805 205.936 84.8693 205.936 84.358 205.936H81.1882V214.042H83.4378C84.1535 214.042 84.6648 213.939 85.0738 213.836C85.3805 213.734 85.6873 213.426 85.9941 213.118C86.1986 212.81 86.4031 212.503 86.5053 211.99C86.6076 211.476 86.7098 211.066 86.8121 210.656H87.8346V218.556H86.8121C86.8121 218.146 86.7098 217.633 86.5053 217.12C86.3008 216.607 86.1986 216.196 85.9941 215.991C85.6873 215.581 85.3805 215.376 84.9715 215.273C84.5625 215.17 84.0513 215.068 83.4378 215.068H81.1882V221.122C81.1882 221.737 81.1882 222.25 81.2905 222.558C81.3927 222.866 81.495 223.174 81.8017 223.379C82.0062 223.584 82.4152 223.687 82.8242 223.687C83.2332 223.79 83.8468 223.79 84.6648 223.79C84.9715 223.79 85.3805 223.79 85.8918 223.79C86.4031 223.79 86.8121 223.79 87.2211 223.687C87.6301 223.687 87.9369 223.584 88.3459 223.482C88.7549 223.379 88.9594 223.276 89.1639 223.071C89.5729 222.661 90.0842 221.943 90.4932 221.019C91.0044 220.096 91.3112 219.377 91.4134 218.967H92.436Z" fill="#1A3260"/>
<path d="M114.42 205.628C114.113 205.628 113.704 205.73 113.193 205.833C112.682 205.936 112.273 206.141 111.966 206.243C111.659 206.449 111.353 206.962 111.25 207.577C111.148 208.296 111.046 209.117 111.046 210.143V225.021H109.819L97.5485 208.398V218.864C97.5485 219.993 97.6508 220.916 97.753 221.532C97.8553 222.148 98.1621 222.558 98.4688 222.866C98.6733 223.071 99.1846 223.276 99.7981 223.482C100.514 223.687 100.923 223.79 101.127 223.79V224.816H93.0494V223.79C93.3562 223.79 93.7652 223.687 94.3787 223.482C94.9922 223.276 95.4012 223.174 95.5035 223.071C95.8102 222.763 96.0147 222.353 96.2193 221.84C96.3215 221.327 96.4238 220.403 96.4238 219.07V209.117C96.4238 208.706 96.3215 208.193 96.2193 207.783C96.117 207.372 95.9125 206.962 95.6057 206.757C95.299 206.449 94.7877 206.141 94.1742 205.936C93.5607 205.73 93.1517 205.628 92.7427 205.525V204.499H98.4688L109.819 219.993V210.348C109.819 209.117 109.717 208.296 109.614 207.577C109.512 206.962 109.205 206.551 109.001 206.346C108.694 206.141 108.285 206.038 107.672 205.833C107.058 205.628 106.649 205.525 106.342 205.525V204.499H114.522V205.628H114.42Z" fill="#1A3260"/>
<path d="M131.803 210.143H130.78C130.678 209.835 130.576 209.424 130.269 208.911C130.065 208.398 129.758 207.988 129.553 207.577C129.247 207.167 128.94 206.756 128.633 206.449C128.326 206.141 128.02 205.936 127.611 205.936C127.304 205.936 126.895 205.833 126.486 205.833C126.077 205.833 125.668 205.833 125.259 205.833H124.441V222.045C124.441 222.353 124.543 222.661 124.645 222.866C124.748 223.174 125.054 223.379 125.361 223.482C125.566 223.584 125.872 223.687 126.486 223.79C126.997 223.892 127.406 223.995 127.713 223.995V225.021H118.203V223.995C118.51 223.995 118.919 223.892 119.43 223.892C119.942 223.79 120.351 223.79 120.555 223.687C120.862 223.584 121.066 223.379 121.271 223.174C121.373 222.969 121.475 222.661 121.475 222.25V205.936H120.657C120.351 205.936 120.044 205.936 119.533 205.936C119.124 205.936 118.715 205.936 118.306 206.038C117.999 206.038 117.692 206.243 117.283 206.551C116.976 206.859 116.67 207.27 116.363 207.68C116.056 208.09 115.852 208.603 115.647 209.014C115.443 209.527 115.238 209.937 115.238 210.245H114.216V204.704H131.803V210.143Z" fill="#1A3260"/>
<path d="M152.356 224.918H146.936C145.709 223.071 144.687 221.43 143.664 219.993C142.642 218.659 141.619 217.223 140.495 215.683H138.45V222.148C138.45 222.456 138.552 222.763 138.654 223.071C138.756 223.276 138.961 223.482 139.37 223.687C139.574 223.79 139.881 223.79 140.29 223.892C140.699 223.995 141.108 223.995 141.415 223.995V225.021H132.826V223.995C133.03 223.995 133.337 223.892 133.848 223.892C134.257 223.892 134.564 223.79 134.768 223.687C135.075 223.584 135.28 223.379 135.382 223.174C135.484 222.969 135.587 222.661 135.587 222.25V207.577C135.587 207.27 135.586 206.962 135.484 206.654C135.382 206.346 135.177 206.243 134.768 206.038C134.564 205.936 134.257 205.833 133.848 205.833C133.439 205.73 133.132 205.73 132.928 205.73V204.704H142.233C143.051 204.704 143.869 204.807 144.687 205.012C145.403 205.217 146.118 205.423 146.732 205.833C147.346 206.243 147.755 206.756 148.164 207.372C148.47 207.988 148.675 208.706 148.675 209.63C148.675 210.45 148.573 211.066 148.368 211.682C148.164 212.297 147.755 212.81 147.346 213.221C146.936 213.631 146.425 213.939 145.812 214.247C145.198 214.555 144.585 214.76 143.869 214.965C144.891 216.299 145.709 217.428 146.323 218.351C146.936 219.275 147.755 220.403 148.777 221.635C149.186 222.25 149.595 222.661 149.902 222.866C150.209 223.174 150.618 223.379 150.924 223.482C151.129 223.584 151.436 223.687 151.845 223.79C152.254 223.892 152.56 223.892 152.765 223.892V224.918H152.356ZM144.891 209.835C144.891 208.603 144.585 207.68 143.869 206.962C143.153 206.243 142.131 205.936 140.904 205.936H138.45V214.657H140.29C141.619 214.657 142.642 214.247 143.562 213.426C144.38 212.4 144.891 211.271 144.891 209.835Z" fill="#1A3260"/>
<path d="M168.716 207.064C169.636 207.988 170.352 209.117 170.761 210.45C171.272 211.784 171.477 213.221 171.477 214.863C171.477 216.504 171.17 217.941 170.659 219.275C170.148 220.609 169.432 221.737 168.512 222.661C167.591 223.584 166.569 224.303 165.444 224.816C164.319 225.329 162.99 225.534 161.763 225.534C160.332 225.534 159.104 225.226 157.877 224.713C156.65 224.2 155.628 223.482 154.81 222.456C153.992 221.532 153.276 220.403 152.765 219.07C152.254 217.736 152.049 216.299 152.049 214.863C152.049 213.221 152.356 211.784 152.867 210.45C153.378 209.117 154.094 208.09 155.014 207.064C155.935 206.141 156.957 205.423 158.082 204.91C159.309 204.396 160.536 204.191 161.763 204.191C163.092 204.191 164.319 204.396 165.546 204.91C166.773 205.423 167.796 206.141 168.716 207.064ZM166.569 221.43C167.08 220.609 167.489 219.583 167.694 218.454C167.898 217.325 168.103 216.094 168.103 214.76C168.103 213.323 168 212.092 167.694 210.963C167.387 209.835 166.978 208.809 166.467 207.988C165.955 207.167 165.24 206.551 164.524 206.141C163.706 205.73 162.786 205.423 161.865 205.423C160.741 205.423 159.718 205.73 159.002 206.243C158.184 206.757 157.571 207.475 157.059 208.296C156.548 209.117 156.241 210.143 156.037 211.271C155.832 212.4 155.73 213.529 155.73 214.863C155.73 216.197 155.832 217.428 156.139 218.557C156.344 219.685 156.753 220.609 157.264 221.532C157.775 222.353 158.389 223.071 159.207 223.482C160.025 223.995 160.945 224.2 161.968 224.2C162.99 224.2 163.91 223.995 164.728 223.482C165.444 222.969 166.058 222.25 166.569 221.43Z" fill="#1A3260"/>
</svg>
