<svg width="49" height="53" viewBox="0 0 49 53" fill="none" xmlns="http://www.w3.org/2000/svg">
<path d="M24.4999 53C20.0792 49.8284 15.9816 46.3514 12.2499 42.6053C6.64997 36.9796 3.0928e-06 28.6015 3.0928e-06 20.6178C-0.00496045 12.2795 5.96484 4.76049 15.1237 1.56939C24.2825 -1.62171 34.8251 0.144109 41.8318 6.04285C46.4394 9.90107 49.0204 15.1493 48.9999 20.6178C48.9999 28.6015 42.3498 36.9796 36.7498 42.6053C33.0182 46.3514 28.9206 49.8284 24.4999 53ZM24.4999 11.7863C20.7486 11.7863 17.2823 13.4696 15.4067 16.202C13.531 18.9345 13.531 22.3011 15.4067 25.0335C17.2823 27.766 20.7486 29.4493 24.4999 29.4493C30.2988 29.4493 34.9998 25.4953 34.9998 20.6178C34.9998 15.7403 30.2988 11.7863 24.4999 11.7863Z" fill="#FF4D01"/>
</svg>
