<svg width="30" height="30" viewBox="0 0 30 30" fill="none" xmlns="http://www.w3.org/2000/svg">
<circle cx="15" cy="10" r="5" stroke="#006F94" stroke-width="2" stroke-linecap="round"/>
<path fill-rule="evenodd" clip-rule="evenodd" d="M18.7287 19.5C17.5365 19.1701 16.2748 19 15 19C12.6402 19 10.3256 19.5828 8.41358 20.6831C6.50217 21.7831 5.0633 23.3631 4.39902 25.2224C4.21321 25.7425 4.4842 26.3148 5.00429 26.5006C5.52438 26.6864 6.09662 26.4154 6.28243 25.8953C6.75765 24.5651 7.82969 23.3267 9.41117 22.4166C10.9665 21.5215 12.8937 21.0165 14.9011 21.0004C15.4198 20.1035 16.3894 19.5 17.5 19.5H18.7287ZM25.5 26.1004C25.6132 25.9243 25.6705 25.7143 25.6578 25.5H25.5V26.1004Z" fill="#006F94"/>
<path d="M22.5 17.5L22.5 27.5" stroke="#006F94" stroke-width="2.5" stroke-linecap="round"/>
<path d="M27.5 22.5L17.5 22.5" stroke="#006F94" stroke-width="2.5" stroke-linecap="round"/>
</svg>
