<?xml version="1.0" encoding="UTF-8" standalone="no"?>
<!DOCTYPE svg PUBLIC "-//W3C//DTD SVG 1.1//EN" "http://www.w3.org/Graphics/SVG/1.1/DTD/svg11.dtd">
<svg width="100%" height="100%" viewBox="0 0 30 30" version="1.1" xmlns="http://www.w3.org/2000/svg" xmlns:xlink="http://www.w3.org/1999/xlink" xml:space="preserve" xmlns:serif="http://www.serif.com/" style="fill-rule:evenodd;clip-rule:evenodd;stroke-linejoin:round;stroke-miterlimit:2;">
    <g transform="matrix(1.44506,0,0,1.44506,-2.34076,-2.34076)">
        <g id="Icons">
            <g id="Rounded">
                <g id="Social">
                    <g id="_-Round---Social---person" serif:id="-Round-/-Social-/-person">
                        <path id="🔹-Icon-Color" d="M12,12C14.21,12 16,10.21 16,8C16,5.79 14.21,4 12,4C9.79,4 8,5.79 8,8C8,10.21 9.79,12 12,12ZM12,14C9.33,14 4,15.34 4,18L4,19C4,19.55 4.45,20 5,20L19,20C19.55,20 20,19.55 20,19L20,18C20,15.34 14.67,14 12,14Z" style="fill:rgb(0,111,148);"/>
                    </g>
                </g>
            </g>
        </g>
    </g>
</svg>
