<svg width="56" height="48" viewBox="0 0 56 48" fill="none" xmlns="http://www.w3.org/2000/svg">
<path d="M52.4912 48C22.6306 48.0363 -0.0319117 28.3785 3.3731e-05 3.00753C3.3731e-05 1.35068 1.56704 0 3.50003 0H12.7378C14.4723 0 15.9458 1.09239 16.2005 2.56299C16.8109 6.08759 18.0081 9.5189 19.7557 12.7521L20.1154 13.4175C20.6155 14.3427 20.2765 15.442 19.3084 16.0346C16.4475 17.7858 15.3542 21.3107 17.5829 24.0611C20.3797 27.5125 23.9052 30.5337 27.931 32.9299C31.1396 34.8396 35.2513 33.9026 37.2943 31.4509C37.9861 30.6207 39.2693 30.33 40.3494 30.7588L41.1221 31.0657C44.8945 32.5635 48.898 33.5897 53.0104 34.1129C54.7262 34.3311 56 35.594 56 37.0808V44.9999C56 46.6568 54.4292 47.9999 52.4962 47.9999L52.4912 48Z" fill="#FF4D01"/>
</svg>
