<svg width="41" height="33" viewBox="0 0 41 33" fill="none" xmlns="http://www.w3.org/2000/svg">
<path d="M36.1705 5.94933C37.9275 4.94078 39.2422 3.3527 39.8691 1.4816C38.218 2.4222 36.4116 3.08478 34.528 3.4407C31.9164 0.78815 27.7786 0.14264 24.4267 1.86487C21.0749 3.58709 19.3387 7.25068 20.1884 10.8085C13.4255 10.4825 7.12466 7.41521 2.85381 2.36987C0.624937 6.06116 1.76394 10.7799 5.45674 13.1534C4.12138 13.1122 2.81564 12.7651 1.64839 12.1409C1.64839 12.1748 1.64839 12.2087 1.64839 12.2426C1.64916 16.0877 4.47157 19.3998 8.39679 20.1618C7.15817 20.4853 5.85895 20.533 4.59824 20.3011C5.70213 23.5893 8.85848 25.842 12.456 25.9092C9.47644 28.1547 5.79675 29.3723 2.00904 29.3664C1.33767 29.3673 0.666824 29.3302 0 29.2554C3.84635 31.6285 8.32303 32.8882 12.8951 32.8837C19.2559 32.9257 25.3688 30.518 29.8665 26.1991C34.3642 21.8803 36.8713 16.0107 36.8271 9.9033C36.8271 9.55326 36.8186 9.2051 36.8016 8.85882C38.4489 7.71573 39.8707 6.29966 41 4.67714C39.4653 5.33029 37.8374 5.75911 36.1705 5.94933Z" fill="#FF4D01"/>
</svg>
