<svg width="38" height="38" viewBox="0 0 38 38" fill="none" xmlns="http://www.w3.org/2000/svg">
<path fill-rule="evenodd" clip-rule="evenodd" d="M19 0C8.50648 0 0 8.50653 0 19.0001C0 25.1453 3.70275 30.2713 3.70275 30.2713L1.38466 37.1879L8.52872 34.8567C8.52872 34.8567 13.184 38 19 38C29.4932 38 38 29.4934 38 19.0001C38 8.50653 29.4932 0 19 0ZM10.3866 9.15259C10.3866 9.15259 10.9977 8.76524 11.3164 8.76524H13.0982C13.0982 8.76524 13.5759 8.84846 13.7954 9.34637C14.015 9.84417 15.5173 13.374 15.6291 13.6464C15.7409 13.9187 16.0323 14.5925 15.5645 15.1959C15.0968 15.7993 14.1183 16.9263 14.1183 16.9263C14.1183 16.9263 13.731 17.2751 14.0667 17.8304C14.4025 18.3853 15.583 20.217 17.1271 21.6008C18.6712 22.9847 20.5621 24.0026 21.5046 24.3126C22.4473 24.6225 22.6539 24.2093 23.0154 23.7445C23.3769 23.2797 24.5005 21.8592 24.5005 21.8592C24.5005 21.8592 24.888 21.2911 25.6496 21.6397C26.4117 21.9883 30.1175 23.7831 30.1175 23.7831C30.1175 23.7831 30.5694 23.8607 30.5952 24.3644C30.6209 24.8678 30.9311 26.3748 29.588 27.8246C28.2449 29.2747 25.3884 29.9456 24.036 29.5676C22.6833 29.1894 18.2115 28.0194 15.295 25.2996C12.3786 22.5801 10.0167 19.7171 9.05056 17.6059C8.08438 15.4948 8.13807 14.2423 8.19174 13.6518C8.24541 13.0612 8.55567 10.3253 10.3866 9.15259Z" fill="url(#paint0_linear_94_171)"/>
<defs>
<linearGradient id="paint0_linear_94_171" x1="-6.22155" y1="-0.962711" x2="-6.22155" y2="-10.0827" gradientUnits="userSpaceOnUse">
<stop stop-color="white"/>
<stop offset="0.5" stop-color="#22A049"/>
<stop offset="1" stop-color="#59BA4B"/>
</linearGradient>
</defs>
</svg>
